<svg width="16" height="21" viewBox="0 0 16 21" fill="none" xmlns="http://www.w3.org/2000/svg">
<path d="M8 0.078125C4.752 0.078125 2.10938 2.72075 2.10938 5.96875V8.39191C1.05389 8.76538 0.296875 9.76962 0.296875 10.9531V18.2031C0.296875 19.7048 1.51397 20.9219 3.01562 20.9219H12.9844C14.486 20.9219 15.7031 19.7048 15.7031 18.2031V10.9531C15.7031 9.76962 14.9461 8.76538 13.8906 8.39191V5.96875C13.8906 2.72075 11.248 0.078125 8 0.078125ZM8 1.89062C10.2489 1.89062 12.0781 3.72034 12.0781 5.96875V8.23438H3.92188V5.96875C3.92188 3.72034 5.75114 1.89062 8 1.89062ZM3.01562 10.0469H12.9844C13.4851 10.0469 13.8906 10.4524 13.8906 10.9531V18.2031C13.8906 18.7038 13.4851 19.1094 12.9844 19.1094H3.01562C2.51492 19.1094 2.10938 18.7038 2.10938 18.2031V10.9531C2.10938 10.4524 2.51492 10.0469 3.01562 10.0469Z" fill="black"/>
</svg>
