<svg width="54" height="54" viewBox="0 0 54 54" fill="none" xmlns="http://www.w3.org/2000/svg">
<path d="M27 0.333313C12.272 0.333313 0.333344 12.272 0.333344 27C0.333344 41.728 12.272 53.6666 27 53.6666C41.728 53.6666 53.6667 41.728 53.6667 27C53.6667 12.272 41.728 0.333313 27 0.333313ZM37.6667 29.6666H29.6667V37.6666C29.6667 39.1386 28.472 40.3333 27 40.3333C25.528 40.3333 24.3333 39.1386 24.3333 37.6666V29.6666H16.3333C14.8613 29.6666 13.6667 28.472 13.6667 27C13.6667 25.528 14.8613 24.3333 16.3333 24.3333H24.3333V16.3333C24.3333 14.8613 25.528 13.6666 27 13.6666C28.472 13.6666 29.6667 14.8613 29.6667 16.3333V24.3333H37.6667C39.1387 24.3333 40.3333 25.528 40.3333 27C40.3333 28.472 39.1387 29.6666 37.6667 29.6666Z" fill="black"/>
</svg>
