<svg width="31" height="30" viewBox="0 0 31 30" fill="none" xmlns="http://www.w3.org/2000/svg">
<path d="M15.2458 0.792847C7.07173 0.792847 0.421082 7.16641 0.421082 15C0.421082 22.8335 7.07173 29.2071 15.2458 29.2071C23.4199 29.2071 30.0706 22.8335 30.0706 15C30.0706 7.16641 23.4199 0.792847 15.2458 0.792847ZM15.2458 2.97856C22.186 2.97856 27.7899 8.34892 27.7899 15C27.7899 21.651 22.186 27.0214 15.2458 27.0214C8.30564 27.0214 2.70181 21.651 2.70181 15C2.70181 8.34892 8.30564 2.97856 15.2458 2.97856ZM14.1055 8.44284V13.9071H8.40364V16.0928H14.1055V21.5571H16.3862V16.0928H22.088V13.9071H16.3862V8.44284H14.1055Z" fill="white"/>
</svg>
