<svg width="29" height="28" viewBox="0 0 29 28" fill="none" xmlns="http://www.w3.org/2000/svg">
<path d="M11.8021 0.5C5.64741 0.5 0.625 5.38667 0.625 11.375C0.625 17.3633 5.64741 22.25 11.8021 22.25C14.3251 22.25 16.6498 21.4198 18.5243 20.0381L25.7433 27.0605C25.8854 27.2045 26.0555 27.3194 26.2438 27.3986C26.4321 27.4778 26.6347 27.5196 26.8398 27.5217C27.0449 27.5237 27.2484 27.4859 27.4383 27.4104C27.6282 27.335 27.8007 27.2235 27.9458 27.0824C28.0908 26.9412 28.2054 26.7734 28.283 26.5886C28.3605 26.4038 28.3994 26.2059 28.3973 26.0063C28.3952 25.8068 28.3522 25.6096 28.2708 25.4264C28.1894 25.2432 28.0713 25.0777 27.9233 24.9395L20.7058 17.9155C22.1259 16.0917 22.9792 13.8299 22.9792 11.375C22.9792 5.38667 17.9568 0.5 11.8021 0.5ZM11.8021 3.5C16.2904 3.5 19.8958 7.00799 19.8958 11.375C19.8958 13.4718 19.0588 15.3655 17.6978 16.7729C17.5653 16.8663 17.4489 16.9795 17.353 17.1084C15.9061 18.4343 13.9587 19.25 11.8021 19.25C7.31376 19.25 3.70833 15.742 3.70833 11.375C3.70833 7.00799 7.31376 3.5 11.8021 3.5Z" fill="white"/>
</svg>
